# xmcd
# Track frame offsets:
# 183
# 12010
# 23133
# 34840
# 46460
# 57733
# 73980
# 88128
# 105745
# 119743
#
# Disc length: 1781 seconds
# Revision: 3
# Processed by: cddbd v1.4PL0 Copyright (c) Steve Scherf et al.
# Submitted via: VisiTrax 2.9.5.181 - For more info visit www.synapsa.com
#
DISCID=9006f30a
DTITLE=Hank Williams Jr. - Rowdy
DYEAR=1981
DGENRE=Country
TTITLE0=Dixie On My Mind
TTITLE1=Texas Women
TTITLE2=You Can't Find Many Kissers
TTITLE3=Give A Damn
TTITLE4=Ain't Much More
TTITLE5=Ramblin Man
TTITLE6=I Got A Right To Be Wrong
TTITLE7=Footlights
TTITLE8=Tennessee River
TTITLE9=Are You Sure Hank Done It This Way
EXTD=YEAR: 1981
EXTT0=
EXTT1=
EXTT2=
EXTT3=
EXTT4=
EXTT5=
EXTT6=
EXTT7=
EXTT8=
EXTT9=
PLAYORDER=
